<?xml version="1.0" encoding="UTF-8" standalone="no"?>
<!-- Created with Inkscape (http://www.inkscape.org/) -->

<svg
   version="1.1"
   id="svg1"
   width="720"
   height="720"
   viewBox="0 0 720 720"
   sodipodi:docname="Snowflower.svg"
   inkscape:version="1.4 (e7c3feb1, 2024-10-09)"
   xmlns:inkscape="http://www.inkscape.org/namespaces/inkscape"
   xmlns:sodipodi="http://sodipodi.sourceforge.net/DTD/sodipodi-0.dtd"
   xmlns:xlink="http://www.w3.org/1999/xlink"
   xmlns="http://www.w3.org/2000/svg"
   xmlns:svg="http://www.w3.org/2000/svg">
  <defs
     id="defs1">
    <linearGradient
       id="linearGradient1"
       inkscape:collect="always">
      <stop
         style="stop-color:#62ecfd;stop-opacity:1;"
         offset="0"
         id="stop1" />
      <stop
         style="stop-color:#2c7cba;stop-opacity:1;"
         offset="1"
         id="stop2" />
    </linearGradient>
    <radialGradient
       inkscape:collect="always"
       xlink:href="#linearGradient1"
       id="radialGradient2"
       cx="354.20161"
       cy="361.3523"
       fx="354.20161"
       fy="361.3523"
       r="275.99065"
       gradientTransform="matrix(1,0,0,1.1191386,0,-43.050996)"
       gradientUnits="userSpaceOnUse" />
  </defs>
  <sodipodi:namedview
     id="namedview1"
     pagecolor="#ffffff"
     bordercolor="#000000"
     borderopacity="0.25"
     inkscape:showpageshadow="2"
     inkscape:pageopacity="0.0"
     inkscape:pagecheckerboard="0"
     inkscape:deskcolor="#d1d1d1"
     inkscape:zoom="1.0165788"
     inkscape:cx="368.39249"
     inkscape:cy="331.01221"
     inkscape:window-width="1728"
     inkscape:window-height="1056"
     inkscape:window-x="0"
     inkscape:window-y="33"
     inkscape:window-maximized="0"
     inkscape:current-layer="g1" />
  <g
     inkscape:groupmode="layer"
     inkscape:label="Image"
     id="g1">
    <path
       style="fill:url(#radialGradient2);fill-opacity:1"
       d="m 349.88819,667.87975 c -5.77648,-8.29258 -0.73832,-21.0325 -2.29211,-31.04814 7.55719,-44.62454 -30.33653,23.35679 -36.02831,-2.8723 18.51719,-13.79718 51.1929,-47.71178 31.64889,-63.9256 -8.71942,7.72418 -42.81256,43.18025 -35.7528,16.38962 11.47611,-14.09522 34.46236,-23.03292 39.92811,-39.9402 1.08336,-10.46866 -0.80483,-52.1752 11.11883,-38.94619 5.87531,14.25442 -0.46399,32.66376 6.42537,45.63169 8.66803,15.05471 45.73169,27.23006 36.46751,44.64612 -17.44688,-2.41257 -45.23721,-51.00086 -38.92204,-8.49267 -3.62736,11.93805 7.59373,17.15789 14.94873,24.12695 12.10174,4.30357 32.50473,35.62105 7.6529,22.73711 -7.53412,-2.30874 -25.60975,-30.74558 -22.30217,-9.28376 -1.10826,13.36596 1.11102,28.36137 -2.0888,40.70312 -2.8633,3.11464 -7.89769,3.74588 -10.80411,0.27425 z M 218.03136,606.13229 c -16.78475,-59.23606 -9.76357,-130.24198 37.95518,-173.69172 18.52134,-16.53587 44.27092,-35.21063 69.58621,-32.51849 -11.83541,18.02575 -14.93246,47.13082 -37.40376,54.519 -11.32833,0.71094 -39.69692,19.03954 -13.20668,14.00063 29.69788,-17.73656 6.7761,13.98612 1.01933,26.24443 -8.39921,2.8327 -40.45249,13.49899 -24.38877,16.99774 36.38062,-17.85579 -7.89279,25.1739 2.86612,37.27925 13.86235,-14.36753 23.62625,-56.05577 31.92488,-16.73626 7.61912,-13.88571 -9.47498,-40.2161 10.17808,-55.32023 8.53637,-27.43333 14.06717,39.96937 18.64207,8.34031 -13.55949,-27.59811 5.09143,-51.92073 19.09131,-74.66408 16.37399,-2.91848 14.64276,41.86118 14.44954,58.44713 -5.18726,69.05686 -64.71455,123.99002 -130.10233,138.0481 z m 271.27253,0.33177 c -64.53652,-18.71189 -130.87244,-80.6245 -129.89858,-150.09065 -2.03188,-15.71644 6.88412,-72.81542 22.63087,-33.87044 18.93337,20.9616 16.8556,46.18001 11.11676,71.14034 13.64187,0.10329 8.54101,-45.02416 21.02069,-13.56836 4.84193,9.82413 13.89293,19.10649 7.68268,30.39306 -1.34634,6.29331 -9.22249,27.12333 2.88122,18.8918 5.79387,-42.78345 16.64039,17.48778 32.39671,18.23251 0.80666,-13.9546 -34.54314,-53.0056 -1.08241,-36.45693 16.81099,-8.12752 -38.84497,-14.74665 -35.01786,-38.06788 -17.12044,-24.08721 19.58463,5.34129 25.07334,-7.03725 -27.76154,-8.53386 -48.58176,-24.64853 -57.35799,-53.51834 -14.18593,-30.08481 33.52073,-2.68225 44.00906,4.4544 49.08735,31.86632 76.55335,93.06018 65.63254,150.8582 -2.69127,12.39887 -6.54602,40.556 -9.08703,38.63954 z m 74.88917,-71.29547 c -8.00053,-24.75262 -5.8715,-57.17239 -39.38859,-62.44246 -2.0231,13.05934 19.94379,52.96617 -1.64745,47.97174 -9.49557,-26.13453 -4.18561,-62.20478 -36.79898,-72.22464 -25.33155,-14.91819 -2.43226,-17.58166 11.93859,-6.35247 23.91802,21.82842 50.62868,-4.3239 76.74657,-6.70501 20.5517,16.83666 -46.51092,16.39435 -36.21056,28.63704 21.26922,24.45834 47.42516,-1.38099 69.92708,-2.42582 13.03145,18.77898 -56.8532,18.47643 -15.73406,32.75539 11.48233,2.77989 47.0788,28.67701 17.07361,25.99948 -13.19573,-3.00077 -51.32957,-39.52777 -39.45315,-5.67576 1.31013,5.62123 7.51203,28.12435 -6.45306,20.46251 z m -428.76472,-0.35052 c -3.6301,-13.6976 17.43924,-51.07183 -10.22273,-29.72146 -8.90451,7.91487 -52.332767,29.48412 -34.398187,3.47852 10.324017,-9.90682 60.794037,-23.04368 23.174217,-30.63391 -19.840607,1.40956 -22.209067,-26.13283 -2.84483,-14.05649 15.55242,14.4888 58.49879,14.6073 57.27174,-4.71538 -12.26647,-2.24974 -62.69126,-21.58114 -27.31624,-21.7517 24.15131,5.73614 48.92273,24.39734 71.3763,3.64427 12.14748,-9.09282 31.85117,-7.75537 11.903,4.94318 -36.02727,10.03851 -29.79792,47.71505 -40.50324,76.08367 -18.43865,2.1077 -1.96177,-26.51162 -2.46713,-36.58613 10.24924,-25.95147 -13.49501,-3.73139 -24.78851,1.17178 -6.2614,9.59479 -4.6251,24.66661 -8.8842,35.90053 -1.33865,4.88906 -4.71616,21.89457 -12.30019,12.24312 z m 54.09331,-110.4907 c -43.0291,-3.39421 -82.14638,-27.32776 -111.310687,-57.99951 22.456867,-27.05776 56.000557,-46.60285 90.264867,-56.07241 50.61614,-13.81674 107.7884,5.25202 140.39146,46.09677 -12.83922,8.17289 -33.3992,2.51253 -49.65957,4.0256 -15.05485,2.00093 -21.63395,-17.15034 -34.05477,-22.73683 -19.46088,0.73675 23.46336,23.02291 9.17441,22.7279 -10.83452,-0.42065 -22.87298,2.53867 -33.00843,0.15542 -7.02833,-11.08624 -40.65065,-29.36099 -18.83729,-6.71728 23.74361,14.66554 -61.4542,2.15273 -26.99925,15.5421 10.50107,1.66132 47.18503,-4.44669 24.77611,10.17993 -17.32595,16.92141 11.89655,4.63098 17.73398,-5.83888 8.11768,-6.92739 20.93718,-1.68186 31.10694,-3.29643 22.88124,-3.50657 -6.15111,11.889 -9.07172,20.20711 10.58591,10.47572 22.82119,-21.11394 36.92781,-20.24889 17.20859,1.10144 35.05049,-0.90254 51.75087,3.06387 -16.75208,27.78192 -50.72715,43.03862 -82.08434,49.23667 -12.21884,2.18589 -24.73536,2.84802 -37.10039,1.67486 z m 289.85361,-1.36941 c -31.38447,-5.93692 -61.61491,-22.80648 -81.17927,-48.15594 14.03858,-7.04386 33.13936,-2.86498 49.42873,-4.53358 14.37666,-2.24821 20.5666,16.63126 32.42664,21.85101 23.47489,3.35686 -34.01309,-30.64908 3.4138,-21.71024 10.39726,1.0855 23.14744,-3.87377 29.88953,6.69291 5.83998,10.98772 30.59195,17.18121 12.37695,1.25947 -28.6575,-18.79302 54.52767,-0.56243 28.51743,-16.62865 -12.37514,-1.24643 -50.55189,4.38186 -23.77492,-13.68965 4.9799,-18.57852 -18.94788,10.30953 -26.80066,13.33783 -7.51754,-2.3319 -41.05828,3.87819 -30.27885,-5.86252 12.46026,-6.31254 18.9586,-29.33509 0.25136,-11.11413 -8.9676,7.08034 -15.74199,19.75445 -28.92345,15.90087 -15.24697,-0.14101 -30.49394,-0.28203 -45.74091,-0.42305 9.34482,-22.67318 36.2654,-36.64133 58.53944,-46.00152 56.33799,-19.96128 130.88639,8.40152 172.58973,49.0211 1.46142,1.69942 -17.08137,18.07131 -28.49975,26.56753 -34.59904,25.86108 -78.85431,41.58665 -122.2358,33.48856 z M 325.37189,384.15198 c -1.31855,-10.64984 -1.32643,-22.41923 -0.4814,-35.11589 8.94203,-5.04469 18.96665,-11.3847 29.55853,-16.27562 10.18662,5.21225 20.09313,10.93755 29.41526,17.09007 -1.13418,9.01948 -0.1727,21.00825 -0.41762,34.06898 -8.56943,5.64002 -19.64295,11.27322 -29.41793,16.97935 -9.2342,-6.3525 -19.04925,-11.59174 -28.65684,-16.74689 z m -12.87361,-52.38296 c -57.7271,-15.18493 -98.84847,-70.29473 -102.89318,-128.97386 -1.71781,-26.52553 -1.59513,-55.08648 8.75297,-79.70214 33.14144,9.7418 68.54971,25.58451 92.44031,52.81935 35.93155,38.54529 49.82465,98.73241 29.14705,147.80751 -14.28088,-13.71817 -36.63308,-41.30848 -27.47214,-64.31033 7.58462,-12.93281 -2.69733,-36.18098 -6.57806,-9.80299 -1.90081,29.75103 -16.23769,-7.01671 -21.37333,-17.37714 -1.018,-8.3477 12.81614,-42.35522 -2.07788,-29.42034 -3.22992,34.34811 -16.19377,-4.27438 -24.63151,-16.8414 -15.63589,-14.03605 2.36915,24.75484 7.76077,31.2483 10.08578,16.16258 -36.16758,-8.69818 -14.31296,9.56433 14.07596,4.13671 28.17823,7.74763 32.11243,23.48227 10.42025,13.54482 9.94541,24.71656 -9.08838,12.96512 -31.22334,-1.75074 18.5856,14.7299 26.22947,19.25606 3.54331,14.39121 33.37254,44.54575 18.67412,51.10339 l -2.95971,-0.75091 z m 70.95095,1.07422 c 9.28159,-26.40799 23.16498,-59.18459 55.74123,-63.1347 24.25383,-21.40769 -41.27415,16.17277 -16.38379,-16.24011 9.89473,-22.89284 27.99674,-21.38947 40.17497,-30.3807 -2.30422,-13.18873 -35.58266,14.96736 -17.90594,-10.26359 10.9887,-11.08463 18.38582,-47.96356 1.34804,-18.69185 -7.30079,13.28116 -17.95718,37.61389 -20.18142,9.25134 -16.81539,-11.55527 7.65477,15.20636 -12.36559,51.23953 -12.61249,29.54684 -17.15356,-43.1134 -20.08127,-7.38777 0.20451,12.27298 11.77811,25.9239 1.80703,36.75596 -8.61461,10.8911 -21.54035,55.56778 -31.13189,30.86188 -18.36513,-63.45817 12.27075,-135.65505 69.73227,-167.72537 34.34781,-19.14867 56.40624,-23.40733 58.17057,-22.65716 17.44589,64.52996 3.92183,147.83659 -53.90249,187.43192 -16.19655,10.04808 -35.88854,22.02093 -55.02172,20.94062 z M 545.48164,288.7542 c -9.62556,-2.44566 -19.50361,-8.4937 -28.97634,-8.75886 -11.76971,4.56148 -38.5721,24.59489 -40.98187,12.24971 22.1774,-15.12496 42.12565,-29.8474 42.03967,-59.51448 -3.05236,-15.55371 20.70741,-40.5703 14.24563,-10.37955 -1.57948,14.85051 -18.02726,49.98058 9.04404,27.45817 17.67165,-4.86589 15.03969,-25.30531 19.12978,-39.71185 -0.20582,-23.65379 23.13596,-16.18695 11.18792,4.46171 -13.86011,37.94747 28.37545,-2.9592 42.67509,-6.64221 28.28332,12.41314 -30.43288,27.86796 -35.55321,38.56289 9.72113,4.03561 51.05974,17.46823 24.71705,22.62269 -16.85418,-1.02158 -34.86108,-21.82886 -50.4348,-9.9232 -12.09746,5.80269 -29.10268,14.26535 -5.18915,17.22005 11.77244,0.48044 50.57696,19.48534 21.50565,20.19254 -7.87819,-2.38324 -15.62377,-5.17464 -23.40946,-7.83761 z m -417.42857,7.05666 c -6.0826,-21.42859 67.55151,-15.87119 31.66118,-33.90864 -18.55974,-22.0836 -51.58754,21.21949 -63.958787,1.30545 6.740627,-12.26632 52.982707,-12.47581 20.898037,-25.88177 -9.90997,-4.99539 -47.424257,-23.33981 -22.122037,-28.91783 14.521517,3.00067 56.162737,44.08778 42.719037,7.42526 -9.89454,-13.98492 7.02527,-34.01737 10.06281,-9.96827 0.76838,22.72825 12.34061,50.37427 35.93897,50.63063 2.3859,-12.88073 -19.4726,-46.49738 0.12782,-48.24648 8.9419,18.57949 8.0346,41.98101 15.96129,60.12536 12.96439,5.39008 55.90282,37.8489 19.59851,25.09176 -12.30522,-2.0275 -23.41025,-16.8751 -35.81608,-13.42898 -17.55018,5.68035 -34.51214,13.83073 -52.70368,17.02348 z m 225.74286,-69.67857 c -12.23166,-15.32502 1.93869,-39.82371 -12.37063,-52.17075 -13.2127,-13.18248 -28.58141,-24.56024 -39.92044,-39.3567 13.75071,-23.56548 49.36837,53.83494 45.97678,10.38202 1.79335,-11.22358 -0.7512,-20.55301 -10.94766,-26.54124 -7.9471,-8.46822 -19.14134,-15.51859 -25.05234,-24.875882 5.02085,-28.23517 43.14339,42.873982 35.92646,0.71593 1.80471,-11.94619 -6.71969,-53.48206 14.16247,-38.64204 1.71037,18.4875 0.60583,37.12147 0.91107,55.675892 8.42075,-6.00056 40.47099,-39.586022 32.45052,-12.706522 -9.5483,11.410282 -24.35504,20.047782 -32.45052,31.855332 1.13808,11.58969 -5.34347,44.6657 12.07394,21.9792 5.18715,-11.52524 43.79806,-35.15258 25.81195,-8.51919 -12.20654,12.41652 -25.19812,24.02477 -37.88589,35.94196 -1.40894,13.92113 1.8312,38.78869 -8.68571,46.26199 z"
       id="path1"
       sodipodi:nodetypes="ccccccccccccccccccccccccccccccccccccccccccccccccccccccccccccccccccccccccccccccccccccccccccccccccccccccccccccccccccccccccccccccccccccccccccccccccccccccccccccccccccccccccccccccccccccccccccccccc" />
  </g>
</svg>
